<svg id="Calque_1" data-name="Calque 1" xmlns="http://www.w3.org/2000/svg" viewBox="0 0 171.37 24.05"><defs><style>.cls-1{fill:#1d1d1b;}.cls-2{fill:#00c780;}</style></defs><title>Logo fond blanc</title><g id="Calque_2" data-name="Calque 2"><g id="Calque_1-2" data-name="Calque 1-2"><path class="cls-1" d="M81.67,61.2v.39H74.8V61.2a2,2,0,0,0,1.62-2.38L75.28,43.24h0q-3.07,10.08-4,13.65a9.7,9.7,0,0,0-.38,3.89h0a11.8,11.8,0,0,0-3,1.9h0L62.29,43.05h0L61,58.18a2.46,2.46,0,0,0,.72,2.27,3.75,3.75,0,0,0,2,.75v.39H57.59V61.2a3.17,3.17,0,0,0,2.77-3l1.35-15a2.55,2.55,0,0,0-2.65-2.92v-.4h6l5.15,18.26h0L74,45.47A21.56,21.56,0,0,0,75,39.89h5.45v.39a2.11,2.11,0,0,0-1.81,2.47c0,.82.21,3.17.51,7s.58,6.81.79,8.92C80.13,60.23,80.67,61.08,81.67,61.2Z" transform="translate(-14.13 -38.62)"/><path class="cls-1" d="M96.77,56.86v.81A6.26,6.26,0,0,1,90.71,62a6.64,6.64,0,0,1-5.13-2.35A8.4,8.4,0,0,1,83.5,54a8.07,8.07,0,0,1,2-5.54,6.65,6.65,0,0,1,5.13-2.3,6.25,6.25,0,0,1,4.1,1.45,6,6,0,0,1,2.14,3.74h0L86.7,53.39h0a8.6,8.6,0,0,0,1.78,4.46,4.81,4.81,0,0,0,3.92,1.78A5,5,0,0,0,96.77,56.86Zm-8.93-9.22a7,7,0,0,0-1.23,4.28c0,.31,0,.62,0,.93l5.07-1.09c.81-.21,1.2-.66,1.2-1.35a3.67,3.67,0,0,0-1-2.47,3,3,0,0,0-2.39-1.21A2.07,2.07,0,0,0,87.84,47.64Z" transform="translate(-14.13 -38.62)"/><path class="cls-1" d="M112.32,58.58c0,1.71.82,2.47,1.69,2.59v.42H109.1l.36-2.5A5.32,5.32,0,0,1,104.84,62a5.79,5.79,0,0,1-4.76-2.25,8.87,8.87,0,0,1-1.77-5.63,8.53,8.53,0,0,1,1.9-5.61A5.91,5.91,0,0,1,105,46.14,5.36,5.36,0,0,1,109,47.89h0v-5.5c0-1.6-.85-2.38-1.69-2.25v-.43l5-1.09h0Zm-3.29.15v-8.8h0c-.81-1.93-2.19-3.23-4-3.23a2.73,2.73,0,0,0-2.62,1.78,10.65,10.65,0,0,0-.78,4.46,13.39,13.39,0,0,0,1.07,5.7,3.5,3.5,0,0,0,3.17,2.25A3.59,3.59,0,0,0,109,58.73Z" transform="translate(-14.13 -38.62)"/><path class="cls-1" d="M116,61.59V61.2c.84-.12,1.66-.91,1.66-2.59V49.9c0-1.72-.82-2.39-1.66-2.42v-.42L121,46h0V58.61c0,1.68.72,2.47,1.6,2.59v.39Zm1.23-19.77a2,2,0,0,1,2-2,2.07,2.07,0,0,1,2,2,2,2,0,0,1-2,2,2,2,0,0,1-2-2Z" transform="translate(-14.13 -38.62)"/><path class="cls-1" d="M124.1,58.37a3.18,3.18,0,0,1,.55-1.79,5.67,5.67,0,0,1,3.11-2.25c.78-.3,1.44-.5,2-.66a18.78,18.78,0,0,1,1.95-.45l1.5-.36h0v-1.8c0-3-1.29-4.35-3.09-4.35a2,2,0,0,0-2.22,2c0,.6.42,1.47.42,2.1,0,.84-.75,1.44-1.8,1.44s-1.59-.81-1.59-1.89a3.63,3.63,0,0,1,1.65-2.91,6,6,0,0,1,3.72-1.25c4.29,0,6.12,2.07,6.12,6.63v5.25c0,2.07.69,2.67,2,1.86v.43a3.5,3.5,0,0,1-2.7,1.62c-1.68,0-2.46-1.17-2.55-2.94h0A5.44,5.44,0,0,1,128.27,62C125.85,62,124.11,60.85,124.1,58.37Zm9.06-5.06c-.18.09-.6.25-1.29.5l-1.38.5a12.11,12.11,0,0,0-1.11.57,3.73,3.73,0,0,0-1,.75,3.4,3.4,0,0,0-.84,2.07c0,1.77,1,2.73,2.43,2.73a3.33,3.33,0,0,0,2.16-.87,2.86,2.86,0,0,0,1.08-2.37Z" transform="translate(-14.13 -38.62)"/><path class="cls-1" d="M152.42,55.53l-1.83,6.93h0a7.44,7.44,0,0,0-3.72-.87h-7.68l8.64-14.5h-2.7c-2.4,0-4.14,1.56-5.25,4.68h-.48l1.86-6a4.53,4.53,0,0,0,.84.45,8.47,8.47,0,0,0,3,.39h6.66l-8.61,14.47h2.55c3,0,5.07-1.83,6.21-5.52Z" transform="translate(-14.13 -38.62)"/><path class="cls-1" d="M155.36,55.87V49.92c0-1.71-.78-2.46-1.71-2.37v-.43l5-1.07h0v9.82c0,2.75,1.05,4.35,3,4.35a2.46,2.46,0,0,0,2-1.14,4.73,4.73,0,0,0,1-2.37V49.92c0-1.8-.75-2.46-1.68-2.37v-.43l5-1.08h0V58.41c0,1.75.54,2.67,1.65,2.79v.39h-4.95l.3-3.66a6.79,6.79,0,0,1-2,2.88A4.81,4.81,0,0,1,159.67,62C156.8,62,155.36,60,155.36,55.87Z" transform="translate(-14.13 -38.62)"/><path class="cls-1" d="M182.33,48.15a1.64,1.64,0,0,1-1.65,1.75c-1.38,0-1.41-1.83-2.34-1.83-.63,0-1.5,1-2.1,2.37h0v8.25q0,2.34,1.71,2.52v.39h-6.66v-.37c.87-.12,1.68-1,1.68-2.55V49.77c0-1.56-.81-2.16-1.68-2.19v-.42l5-1.11h0l-.48,4.17,0,0c1-2.67,2.5-4,4.38-4A2,2,0,0,1,182.33,48.15Z" transform="translate(-14.13 -38.62)"/><path class="cls-2" d="M181.49,60.44a2,2,0,0,1,2-2.45,2.07,2.07,0,0,1,2.05,2,2,2,0,0,1-2.44,2A2,2,0,0,1,181.49,60.44Z" transform="translate(-14.13 -38.62)"/><path class="cls-2" d="M14.22,60.64a16.44,16.44,0,0,0,2.57-1.83,13.88,13.88,0,0,0,2.12-2.28c.31-.41.6-.83.87-1.27s.5-.9.72-1.37.45-1,.71-1.47l.22-.39.12-.19.14-.2a3.51,3.51,0,0,1,.74-.75,3.25,3.25,0,0,1,2.12-.6,4.66,4.66,0,0,1,1.93.68c.53.31,1,.64,1.4.93a6.89,6.89,0,0,0,1.2.71,2,2,0,0,0,1.92,0,5.84,5.84,0,0,0,1.54-2c.46-.86.88-1.84,1.37-2.85.25-.5.5-1,.83-1.56a8.52,8.52,0,0,1,1.32-1.67,4.65,4.65,0,0,1,2.06-1.16l.59-.11c.22,0,.44,0,.66,0a4.34,4.34,0,0,1,.62.06l.15,0,.14,0,.28.07a6.11,6.11,0,0,1,1,.37c.32.15.61.31.9.48s.53.37.78.55l.7.59a19.53,19.53,0,0,1,2.32,2.58,28.54,28.54,0,0,1,1.85,2.78,33.52,33.52,0,0,1,2.75,6,.18.18,0,0,1-.14.22.16.16,0,0,1-.13,0h0c-1.56-1.54-3-3.13-4.44-4.66a39.52,39.52,0,0,0-4.43-4.15,6.94,6.94,0,0,0-2.11-1.16l-.38-.08h-.15l-.13,0a1.43,1.43,0,0,0-.69.33,7.92,7.92,0,0,0-1.66,2c-.53.86-1,1.82-1.68,2.8a12.8,12.8,0,0,1-1.08,1.46,5.79,5.79,0,0,1-1.6,1.31,4.06,4.06,0,0,1-1.07.4l-.28.06h-.3a2.62,2.62,0,0,1-.56,0,4.72,4.72,0,0,1-2-.59,22.08,22.08,0,0,1-2.66-2,2.63,2.63,0,0,0-1-.5,1.41,1.41,0,0,0-.94.16,2.75,2.75,0,0,0-.83.9c-.27.41-.54.88-.82,1.35s-.6.93-.93,1.38a14.9,14.9,0,0,1-1.08,1.28,14.64,14.64,0,0,1-2.5,2.15A16.65,16.65,0,0,1,14.38,61a.17.17,0,0,1-.23-.07h0A.16.16,0,0,1,14.22,60.64Z" transform="translate(-14.13 -38.62)"/></g></g></svg>